name X:\Health\ResearchProjects\ASalo\Sprinting 2016\NHaralabidis\Running_implicit_muscleDriven\Running_implicit_muscleDriven\Study2\ExperimentalData\IK_Splined\twoSteps_IK_BSplines_90_meshInts_study2_p02_s_01_lowIK_modROI.mot
datacolumns 38
datarows 13
range 0.65570220 0.67023553
endheader
                time	         pelvis_tilt	         pelvis_list	     pelvis_rotation	           pelvis_tx	           pelvis_ty	           pelvis_tz	       hip_flexion_r	     hip_adduction_r	      hip_rotation_r	        knee_angle_r	       ankle_angle_r	    subtalar_angle_r	         mtp_angle_r	       hip_flexion_l	     hip_adduction_l	      hip_rotation_l	        knee_angle_l	       ankle_angle_l	    subtalar_angle_l	         mtp_angle_l	    lumbar_extension	      lumbar_bending	     lumbar_rotation	          arm_flex_r	           arm_add_r	           arm_rot_r	        elbow_flex_r	           pro_sup_r	        wrist_flex_r	         wrist_dev_r	          arm_flex_l	           arm_add_l	           arm_rot_l	        elbow_flex_l	           pro_sup_l	        wrist_flex_l	         wrist_dev_l	
          0.65570220	        -17.57981150	          3.68667082	          9.51664119	          0.31178171	          0.89299518	          0.33982310	         30.93891290	         -9.47481662	        -15.96099152	       -111.56390290	        -14.67707996	        -31.59672344	         -8.94205228	         30.64413076	          6.08548427	         -0.02062600	        -50.32252939	         22.05457898	         -8.91072477	          6.15699688	        -27.89979643	         -8.87203799	         -2.21463492	        -30.07273215	        -10.27671812	        -16.14804287	         48.90157560	         77.10871764	        -27.08260541	         30.48053336	         -1.82542686	        -11.66372970	         -7.75240702	         69.43248128	         69.36277214	          4.67587082	         19.75875574	
          0.65742222	        -17.64849028	          3.52394763	         10.00742061	          0.32063768	          0.89252494	          0.33924045	         32.10471631	         -9.63119156	        -16.17916346	       -112.42801705	        -14.00457374	        -31.52966215	         -8.82277947	         30.02113394	          6.04828761	          0.33579545	        -50.09540425	         22.13643403	         -8.88107964	          6.43892597	        -27.79434664	         -8.36477645	         -2.29881219	        -31.10782042	        -10.02393176	        -16.51449552	         47.92096807	         77.09450793	        -27.00453490	         30.74479075	         -0.54822045	        -11.35576292	         -7.27486730	         70.32669957	         69.11983804	          4.68154613	         19.69429470	
          0.65742222	        -17.64849028	          3.52394763	         10.00742061	          0.32063768	          0.89252494	          0.33924045	         32.10471631	         -9.63119156	        -16.17916346	       -112.42801705	        -14.00457374	        -31.52966215	         -8.82277947	         30.02113394	          6.04828761	          0.33579545	        -50.09540425	         22.13643403	         -8.88107964	          6.43892597	        -27.79434664	         -8.36477645	         -2.29881219	        -31.10782042	        -10.02393176	        -16.51449552	         47.92096807	         77.09450793	        -27.00453490	         30.74479075	         -0.54822045	        -11.35576292	         -7.27486730	         70.32669957	         69.11983804	          4.68154613	         19.69429470	
          0.65817336	        -17.67848235	          3.45288631	         10.22174432	          0.32450508	          0.89231959	          0.33898601	         32.61382345	         -9.69948061	        -16.27443930	       -112.80537629	        -13.71088982	        -31.50037645	         -8.77069295	         29.74907080	          6.03204381	          0.49144494	        -49.99621854	         22.17218018	         -8.86813359	          6.56204459	        -27.74829665	         -8.14325498	         -2.33557246	        -31.55984418	         -9.91353979	        -16.67452564	         47.49273609	         77.08830253	        -26.97044145	         30.86019213	          0.00953646	        -11.22127362	         -7.06632537	         70.71720531	         69.01374855	          4.68402455	         19.66614452	
          0.66054664	        -17.75633618	          3.21150777	         10.93317498	          0.33667233	          0.89169734	          0.33817412	         34.22276968	         -9.94481742	        -16.58044586	       -113.91333251	        -12.79974786	        -31.40527796	         -8.58743665	         28.88608278	          5.93915460	          1.02106062	        -49.66734209	         22.21317960	         -8.78857637	          6.98365715	        -27.60330744	         -7.39884039	         -2.51252568	        -33.06040804	         -9.49623316	        -17.38481839	         46.51959170	         77.08097096	        -26.84500492	         31.20077437	          1.72255799	        -10.78184534	         -6.41872821	         72.08510713	         68.57790569	          4.68424064	         19.59310700	
          0.66226667	        -17.80633256	          3.03016308	         11.46180257	          0.34547064	          0.89125647	          0.33758268	         35.38898795	        -10.13386532	        -16.80411329	       -114.68425502	        -12.14578094	        -31.33537977	         -8.44751994	         28.25935192	          5.85603286	          1.41927642	        -49.42310212	         22.21554483	         -8.71622406	          7.30161435	        -27.49842111	         -6.84241446	         -2.66388647	        -34.17543855	         -9.16774762	        -17.97740043	         45.95872401	         77.08032365	        -26.74736115	         31.43847135	          2.94533476	        -10.45786104	         -5.95368496	         73.12745000	         68.22377201	          4.68150259	         19.54621980	
          0.66226667	        -17.80633256	          3.03016308	         11.46180257	          0.34547064	          0.89125647	          0.33758268	         35.38898795	        -10.13386532	        -16.80411329	       -114.68425502	        -12.14578094	        -31.33537977	         -8.44751994	         28.25935192	          5.85603286	          1.41927642	        -49.42310212	         22.21554483	         -8.71622406	          7.30161435	        -27.49842111	         -6.84241446	         -2.66388647	        -34.17543855	         -9.16774762	        -17.97740043	         45.95872401	         77.08032365	        -26.74736115	         31.43847135	          2.94533476	        -10.45786104	         -5.95368496	         73.12745000	         68.22377201	          4.68150259	         19.54621980	
          0.66301780	        -17.82816602	          2.95096974	         11.69265460	          0.34931286	          0.89106395	          0.33732440	         35.89827626	        -10.21642266	        -16.90178902	       -115.02091741	        -11.86019314	        -31.30485518	         -8.38641822	         27.98565813	          5.81973354	          1.59317754	        -49.31644236	         22.21657772	         -8.68462775	          7.44046648	        -27.45261718	         -6.59942288	         -2.72998582	        -34.66237314	         -9.02429777	        -18.23618141	         45.71379270	         77.08004097	        -26.70472006	         31.54227378	          3.47932222	        -10.31637688	         -5.75060025	         73.58264184	         68.06912159	          4.68030688	         19.52574413	
          0.66539109	        -17.88206574	          2.67779670	         12.44870131	          0.36140021	          0.89047915	          0.33649950	         37.51042197	        -10.50164516	        -17.20491929	       -115.99340155	        -10.97070323	        -31.20112820	         -8.17634626	         27.11213181	          5.65803988	          2.19149098	        -48.94607962	         22.16763258	         -8.56254419	          7.90057104	        -27.29685165	         -5.78735053	         -3.00325783	        -36.26066829	         -8.52136058	        -19.20762962	         45.28648284	         77.17303362	        -26.54456837	         31.86077436	          5.11721290	         -9.86711921	         -5.11642857	         75.14747312	         67.48098049	          4.66405459	         19.47328054	
          0.66711111	        -17.91577526	          2.47166891	         13.00610046	          0.37014181	          0.89006366	          0.33589852	         38.67988196	        -10.71700993	        -17.42266461	       -116.66582429	        -10.33061107	        -31.12336816	         -8.01805851	         26.47593696	          5.52417093	          2.64245598	        -48.66582041	         22.11362981	         -8.46616698	          8.24162073	        -27.18004169	         -5.18307574	         -3.22417620	        -37.44024199	         -8.13922186	        -19.96627093	         45.09979880	         77.27375175	        -26.41947599	         32.08824393	          6.28677104	         -9.54073215	         -4.65947535	         76.32651361	         67.01941029	          4.64784839	         19.43959893	
          0.66711111	        -17.91577526	          2.47166891	         13.00610046	          0.37014181	          0.89006366	          0.33589852	         38.67988196	        -10.71700993	        -17.42266461	       -116.66582429	        -10.33061107	        -31.12336816	         -8.01805851	         26.47593696	          5.52417093	          2.64245598	        -48.66582041	         22.11362981	         -8.46616698	          8.24162073	        -27.18004169	         -5.18307574	         -3.22417620	        -37.44024199	         -8.13922186	        -19.96627093	         45.09979880	         77.27375175	        -26.41947599	         32.08824393	          6.28677104	         -9.54073215	         -4.65947535	         76.32651361	         67.01941029	          4.64784839	         19.43959893	
          0.66786225	        -17.93049622	          2.38165277	         13.24951704	          0.37395927	          0.88988221	          0.33563607	         39.19058594	        -10.81105988	        -17.51775414	       -116.95947176	        -10.05108238	        -31.08941029	         -7.94893414	         26.19811023	          5.46571028	          2.83939271	        -48.54343102	         22.09004676	         -8.42407898	          8.39055737	        -27.12903070	         -4.91918853	         -3.32065141	        -37.95536263	         -7.97234161	        -20.29757011	         45.01827376	         77.31773543	        -26.36484806	         32.18758005	          6.79751789	         -9.39819869	         -4.45992357	         76.84140140	         66.81784227	          4.64077114	         19.42489015	
          0.67023553	        -17.96779279	          2.06728294	         14.03728914	          0.38596467	          0.88932359	          0.33479747	         40.81477358	        -11.12599841	        -17.80158047	       -117.79010788	         -9.17535726	        -30.96462639	         -7.71660966	         25.31235388	          5.23069563	          3.52326614	        -48.10659457	         21.97721133	         -8.30019725	          8.87479288	        -26.94125743	         -4.04203685	         -3.68872936	        -39.63050547	         -7.42587624	        -21.40700460	         45.05716542	         77.59499740	        -26.15540588	         32.49658906	          8.36884274	         -8.96207621	         -3.82405004	         78.58057010	         66.08468083	          4.59810044	         19.39003536	
